<svg xmlns="http://www.w3.org/2000/svg" xmlns:xlink="http://www.w3.org/1999/xlink" viewBox="0 0 64 64">
<defs><clipPath id="a"><rect width="64" height="64" fill="none"/></clipPath></defs>
<g clip-path="url(#a)">
<path d="M40.37,20.29l2,0L47.67,15l.26-2.26A24,24,0,0,0,8.84,24.38a2.94,2.94,0,0,1,1.83-.1l10.66-1.75s.56-.91.83-.85a13.31,13.31,0,0,1,18.21-1.39Z" fill="#ea4335"/>
<path d="M55.17,24.4a24,24,0,0,0-7.24-11.67l-7.56,7.56a13.31,13.31,0,0,1,5,10.37V32a6.67,6.67,0,1,1,0,13.34H32l-1.33,1.34v8L32,56H45.33A17.32,17.32,0,0,0,55.17,24.4Z" fill="#4285f4"/>
<path d="M18.67,56H32V45.33H18.67a6.66,6.66,0,0,1-2.75-.6L14,45.32,8.66,50.66l-.47,1.8A17.27,17.27,0,0,0,18.67,56Z" fill="#34a853"/>
<path d="M18.67,21.33A17.32,17.32,0,0,0,8.2,52.46l7.73-7.73a6.66,6.66,0,1,1,8.81-8.81l7.73-7.73A17.31,17.31,0,0,0,18.67,21.33Z" fill="#fbbc05"/>
</g>
</svg>
